Coordinates
version=1
nRows=17
nColumns=33
inDegrees=yes

Units are S.I. units (second, meters, Newtons, ...)
Angles are in degrees.

endheader
time	ground_thorax_rot_x	ground_thorax_rot_y	ground_thorax_rot_z	ground_thorax_tx	ground_thorax_ty	ground_thorax_tz	clav_prot_r	clav_elev_r	scapula_abduction_r	scapula_elevation_r	scapula_upward_rot_r	scapula_winging_r	shoulder_elv_r	plane_of_elev_r	axial_rot_r	elbow_flexion_r	pro_sup_r	wrist_flex_r	wrist_dev_r	clav_prot_l	clav_elev_l	scapula_abduction_l	scapula_elevation_l	scapula_upward_rot_l	scapula_winging_l	shoulder_elv_l	plane_of_elev_l	axial_rot_l	elbow_flexion_l	pro_sup_l	wrist_flex_l	wrist_dev_l	
1.9300	-2.905143	3.096684	13.268231	-0.112523	1.029202	0.011797	10.123287	-15.472778	18.826730	-8.817406	2.308995	-1.717034	-21.613201	-70.600263	112.456490	-74.063146	-176.717893	27.109180	-10.106329	15.490868	-5.860487	-22.208035	-15.677315	-34.673083	3.552444	60.892264	-19.001520	12.077707	62.084416	13.040239	13.196262	-15.469655	
1.9400	-2.773761	3.030413	13.229488	-0.112429	1.029460	0.011975	9.941396	-15.316155	18.363756	-8.549248	1.980251	-1.620396	-22.885243	-71.221057	111.610123	-74.631618	-176.125499	28.198399	-10.674750	15.039245	-5.564707	-21.431887	-16.003055	-34.727200	3.161709	60.722100	-20.006976	11.718392	63.213409	12.906371	12.640436	-16.036721	
1.9500	-2.633585	2.956467	13.185757	-0.112314	1.029692	0.012160	9.774911	-15.118547	17.954426	-8.263024	1.705239	-1.565968	-24.242725	-71.804532	110.696646	-75.122110	-175.421375	29.238190	-11.246214	14.579766	-5.262003	-20.635753	-16.329295	-34.766049	2.765332	60.540939	-20.991672	11.350467	64.234620	12.784616	12.073626	-16.647969	
1.9600	-2.483420	2.875704	13.144205	-0.112191	1.029918	0.012347	9.631852	-14.899508	17.598416	-7.966609	1.458529	-1.541934	-25.673862	-72.355874	109.703600	-75.536372	-174.626384	30.259557	-11.844820	14.116719	-4.968100	-19.828637	-16.645278	-34.797885	2.365629	60.356108	-21.968718	10.966438	65.153468	12.681974	11.509600	-17.296131	
1.9700	-2.327253	2.793107	13.103625	-0.112066	1.030131	0.012539	9.503925	-14.657145	17.274366	-7.652777	1.225195	-1.541024	-27.118218	-72.863940	108.691697	-75.877508	-173.757523	31.262455	-12.468358	13.664347	-4.681622	-19.037293	-16.958376	-34.837436	1.973913	60.165284	-22.917931	10.598534	65.969686	12.613581	10.970129	-17.978440	
1.9800	-2.169011	2.708382	13.066048	-0.111950	1.030321	0.012725	9.390632	-14.396646	16.979192	-7.324873	1.001253	-1.558642	-28.546549	-73.333408	107.692880	-76.144712	-172.848872	32.232256	-13.100505	13.233202	-4.399791	-18.282231	-17.274866	-34.893670	1.598124	59.964106	-23.836255	10.246276	66.699622	12.582512	10.465525	-18.679760	
1.9900	-2.014277	2.627170	13.037995	-0.111858	1.030488	0.012903	9.286698	-14.125978	16.690862	-6.979713	0.759683	-1.582298	-29.897237	-73.763166	106.762706	-76.336006	-171.900331	33.182072	-13.743205	12.837819	-4.121999	-17.589957	-17.597932	-34.974146	1.250487	59.748524	-24.717838	9.922856	67.344424	12.608383	9.996476	-19.407987	
2.0000	-1.867035	2.547495	13.021428	-0.111800	1.030631	0.013062	9.192593	-13.853542	16.406990	-6.622548	0.494103	-1.606375	-31.142781	-74.160312	105.928135	-76.453587	-170.937125	34.094890	-14.375205	12.484802	-3.848068	-16.973860	-17.930442	-35.085357	0.935457	59.516293	-25.565620	9.626638	67.921514	12.687955	9.559847	-20.141216	
2.0100	-1.734054	2.473572	12.999615	-0.111732	1.030782	0.013201	9.094598	-13.596566	16.121498	-6.284404	0.240262	-1.619338	-32.384890	-74.531378	105.094210	-76.477580	-169.847782	35.074671	-15.071967	12.147481	-3.568801	-16.376325	-18.252211	-35.162971	0.635028	59.272989	-26.404384	9.302136	68.412527	12.846081	9.076633	-20.948350	
2.0200	-1.615967	2.399844	12.968074	-0.111660	1.030925	0.013321	8.996320	-13.344007	15.850188	-5.962718	0.017726	-1.632938	-33.620006	-74.873647	104.281712	-76.420477	-168.688265	36.045379	-15.774556	11.830774	-3.281452	-15.808678	-18.570783	-35.218101	0.351733	59.014025	-27.224165	8.967664	68.835215	13.063706	8.557906	-21.760174	
2.0300	-1.505886	2.330019	12.938385	-0.111589	1.031065	0.013429	8.901664	-13.092878	15.595259	-5.651035	-0.182459	-1.649863	-34.861405	-75.186577	103.468752	-76.283976	-167.443521	37.019055	-16.488976	11.532637	-2.991664	-15.267437	-18.880534	-35.250067	0.084369	58.737504	-28.024687	8.614610	69.178070	13.348545	7.997486	-22.564237	
2.0400	-1.401972	2.262486	12.909889	-0.111528	1.031204	0.013525	8.819504	-12.844530	15.370365	-5.349765	-0.362297	-1.675410	-36.104936	-75.459312	102.641869	-76.070648	-166.102521	37.992883	-17.202794	11.258583	-2.704319	-14.763702	-19.180993	-35.268184	-0.163461	58.441525	-28.800492	8.254558	69.456982	13.715057	7.387939	-23.275648	
2.0500	-1.300881	2.202705	12.862807	-0.111470	1.031359	0.013621	8.749810	-12.603454	15.187471	-5.073396	-0.496886	-1.712659	-37.400969	-75.682231	101.744674	-75.778503	-164.635661	38.990890	-17.945305	10.998808	-2.422341	-14.277010	-19.458428	-35.248728	-0.397200	58.134451	-29.541540	7.866391	69.651396	14.164450	6.712835	-23.903745	
2.0600	-1.201695	2.144292	12.819437	-0.111427	1.031509	0.013717	8.700422	-12.357055	15.053338	-4.804853	-0.599423	-1.770101	-38.730659	-75.851883	100.806645	-75.422504	-163.126745	39.926384	-18.670343	10.764397	-2.152616	-13.834397	-19.724861	-35.232225	-0.611027	57.812531	-30.250455	7.489533	69.788079	14.672239	6.003092	-24.365036	
2.0700	-1.099344	2.093326	12.780331	-0.111385	1.031648	0.013828	8.674471	-12.100469	14.977735	-4.544514	-0.658827	-1.853774	-40.159828	-75.953873	99.748104	-75.004020	-161.522683	40.834140	-19.417713	10.547184	-1.895582	-13.418726	-19.972659	-35.202461	-0.810300	57.479459	-30.932828	7.097981	69.859235	15.251836	5.225062	-24.680324	
2.0800	-0.986451	2.032746	12.756196	-0.111352	1.031773	0.013945	8.696097	-11.820349	15.028357	-4.303766	-0.617786	-1.998085	-41.895472	-75.984943	98.400159	-74.512673	-159.750663	41.679273	-20.262238	10.340487	-1.660630	-13.019382	-20.193034	-35.160108	-0.998466	57.120268	-31.612716	6.703342	69.874237	15.924477	4.324987	-24.860747	
2.0900	-0.872863	1.967852	12.728727	-0.111328	1.031891	0.014075	8.753289	-11.530895	15.179156	-4.090757	-0.488922	-2.186288	-43.842601	-75.942188	96.850229	-73.959994	-157.919799	42.435465	-21.137251	10.146413	-1.442837	-12.641970	-20.395192	-35.114674	-1.175555	56.759521	-32.263451	6.313588	69.818318	16.637026	3.375999	-24.960800	
